{"accessors":[{"bufferView":0,"byteOffset":0,"componentType":5126,"count":3858,"max":[2.13427495956421,2.33886504173279,2.59716629981995],"min":[-2.63427519798279,-2.33886504173279,-3.05102443695068],"normalized":false,"type":"VEC3"},{"bufferView":1,"byteOffset":0,"componentType":5126,"count":3858,"max":[0.000457980262581259,0.0878479033708572,1,1],"min":[-1,-1,-1,-1],"normalized":false,"type":"VEC4"},{"bufferView":2,"byteOffset":0,"componentType":5126,"count":3858,"max":[1,1,1],"min":[-1,-1,-1],"normalized":false,"type":"VEC3"},{"bufferView":3,"byteOffset":0,"componentType":5126,"count":3858,"max":[1,1],"min":[0,0],"normalized":false,"type":"VEC2"},{"bufferView":4,"byteOffset":0,"componentType":5123,"count":3858,"max":[3857],"min":[0],"normalized":false,"type":"SCALAR"}],"asset":{"generator":"Godot Engine v4.3.rc1.official@e343dbbcc1030f04dc5833f1c19d267a17332ca9","version":"2.0"},"bufferViews":[{"buffer":0,"byteLength":46296,"byteOffset":0,"byteStride":12,"target":34962},{"buffer":0,"byteLength":61728,"byteOffset":46296,"byteStride":16,"target":34962},{"buffer":0,"byteLength":46296,"byteOffset":108024,"byteStride":12,"target":34962},{"buffer":0,"byteLength":30864,"byteOffset":154320,"byteStride":8,"target":34962},{"buffer":0,"byteLength":7716,"byteOffset":185184,"target":34963}],"buffers":[{"byteLength":192900,"uri":"csg_mini_dungeon0.bin"}],"extensionsUsed":["GODOT_single_root"],"materials":[{"extensions":{},"pbrMetallicRoughness":{"baseColorFactor":[0.99999988079071,0.99999988079071,0.99999988079071,1],"metallicFactor":0,"roughnessFactor":1}}],"meshes":[{"extras":{"targetNames":[]},"primitives":[{"attributes":{"NORMAL":2,"POSITION":0,"TANGENT":1,"TEXCOORD_0":3},"indices":4,"material":0,"mode":4}]}],"nodes":[{"children":[1,2,3,4,5,6,7,8,9,10,11,12,13,14,15,16,17,18,19,20],"mesh":0,"name":"CSGCombiner3D2","translation":[-5.15077018737793,2.03632998466492,-4.97264003753662]},{"name":"CSGBox3D","translation":[-0.25,0,-0.22692899405956]},{"name":"CSGBox3D2","translation":[-0.20593300461769,1.94673001766205,-0.17846700549126]},{"name":"CSGBox3D3","translation":[2.08365988731384,2.1029999256134,1.8401700258255]},{"name":"CSGBox3D4","translation":[2.08365988731384,2.1029999256134,0.840169012546539]},{"name":"CSGBox3D5","translation":[2.08365988731384,2.1029999256134,-0.15983100235462]},{"name":"CSGBox3D6","translation":[2.08365988731384,2.1029999256134,-1.1598299741745]},{"name":"CSGBox3D7","translation":[2.08365988731384,2.1029999256134,-2.15983009338379]},{"name":"CSGBox3D8","translation":[-2.24036002159119,2.1029999256134,1.8401700258255]},{"name":"CSGBox3D9","translation":[-2.24036002159119,2.1029999256134,0.840169012546539]},{"name":"CSGBox3D10","translation":[-2.24036002159119,2.1029999256134,-0.15983100235462]},{"name":"CSGBox3D11","translation":[-2.24036002159119,2.1029999256134,-1.1598299741745]},{"name":"CSGBox3D12","translation":[-2.24036002159119,2.1029999256134,-2.15983009338379]},{"name":"CSGBox3D13","rotation":[0,0.70710676908493,0,0.70710676908493],"translation":[1.29588997364044,2.1029999256134,-2.80706000328064]},{"name":"CSGBox3D14","rotation":[0,0.70710676908493,0,0.70710676908493],"translation":[0.295886993408203,2.1029999256134,-2.80706000328064]},{"name":"CSGBox3D15","rotation":[0,0.70710676908493,0,0.70710676908493],"translation":[-0.7041130065918,2.1029999256134,-2.80706000328064]},{"name":"CSGBox3D16","rotation":[0,0.70710676908493,0,0.70710676908493],"translation":[-1.70411002635956,2.1029999256134,-2.80706000328064]},{"name":"CSGBox3D17","rotation":[0,0.70710676908493,0,0.70710676908493],"translation":[1.29588997364044,2.1029999256134,2.36100006103516]},{"name":"CSGBox3D18","rotation":[0,0.70710676908493,0,0.70710676908493],"translation":[0.295886993408203,2.1029999256134,2.36100006103516]},{"name":"CSGBox3D19","rotation":[0,0.70710676908493,0,0.70710676908493],"translation":[-0.7041130065918,2.1029999256134,2.36100006103516]},{"name":"CSGBox3D20","rotation":[0,0.70710676908493,0,0.70710676908493],"translation":[-1.70411002635956,2.1029999256134,2.36100006103516]}],"scene":0,"scenes":[{"nodes":[0]}]}