{"accessors":[{"bufferView":0,"byteOffset":0,"componentType":5126,"count":2238,"max":[17.72654,18,17.122746],"min":[-17.72654,-18,-17.72654],"normalized":false,"type":"VEC3"},{"bufferView":1,"byteOffset":0,"componentType":5126,"count":2238,"max":[0.996284,0.842041,0.999998,1],"min":[-0.999998,-0.908312,-0.999998,-1],"normalized":false,"type":"VEC4"},{"bufferView":2,"byteOffset":0,"componentType":5126,"count":2238,"max":[0.984776,1,0.984778],"min":[-0.984777,-1,-0.984774],"normalized":false,"type":"VEC3"},{"bufferView":3,"byteOffset":0,"componentType":5126,"count":2238,"max":[1,1],"min":[0,0],"normalized":false,"type":"VEC2"},{"bufferView":4,"byteOffset":0,"componentType":5125,"count":2238,"max":[2237],"min":[0],"normalized":false,"type":"SCALAR"}],"asset":{"generator":"Godot Engine v4.2.2.stable.official@15073afe3856abd2aa1622492fe50026c7d63dc1","version":"2.0"},"bufferViews":[{"buffer":0,"byteLength":26856,"byteOffset":0},{"buffer":0,"byteLength":35808,"byteOffset":26856},{"buffer":0,"byteLength":26856,"byteOffset":62664},{"buffer":0,"byteLength":17904,"byteOffset":89520},{"buffer":0,"byteLength":8952,"byteOffset":107424}],"buffers":[{"byteLength":116376,"uri":"Grotte0.bin"}],"extensionsUsed":["GODOT_single_root"],"materials":[{"extensions":{},"pbrMetallicRoughness":{"baseColorFactor":[0.99999988079071,0.99999988079071,0.99999988079071,1],"metallicFactor":0,"roughnessFactor":1}}],"meshes":[{"extras":{"targetNames":[]},"primitives":[{"attributes":{"NORMAL":2,"POSITION":0,"TANGENT":1,"TEXCOORD_0":3},"indices":4,"material":0,"mode":4}]}],"nodes":[{"children":[1],"extensions":{},"name":"Node3D"},{"children":[2,3,4],"extensions":{},"mesh":0,"name":"CSGCombiner3D2"},{"extensions":{},"name":"CSGMesh3D"},{"extensions":{},"name":"CSGMesh3D2"},{"extensions":{},"name":"CSGMesh3D3","translation":[0,0.904502868652344,15.3594341278076]}],"scene":0,"scenes":[{"nodes":[0]}]}