{"accessors":[{"bufferView":0,"byteOffset":0,"componentType":5126,"count":702,"max":[25,20,0.5],"min":[-25,0,-0.50000023841858],"normalized":false,"type":"VEC3"},{"bufferView":1,"byteOffset":0,"componentType":5126,"count":702,"max":[0.954182982444763,0.510886669158936,1,-1],"min":[-1,-1,-1,-1],"normalized":false,"type":"VEC4"},{"bufferView":2,"byteOffset":0,"componentType":5126,"count":702,"max":[1,1,1],"min":[-1,-1,-1],"normalized":false,"type":"VEC3"},{"bufferView":3,"byteOffset":0,"componentType":5126,"count":702,"max":[1,1],"min":[0,0],"normalized":false,"type":"VEC2"},{"bufferView":4,"byteOffset":0,"componentType":5123,"count":702,"max":[701],"min":[0],"normalized":false,"type":"SCALAR"}],"asset":{"generator":"Godot Engine v4.3.rc1.official@e343dbbcc1030f04dc5833f1c19d267a17332ca9","version":"2.0"},"bufferViews":[{"buffer":0,"byteLength":8424,"byteOffset":0,"byteStride":12,"target":34962},{"buffer":0,"byteLength":11232,"byteOffset":8424,"byteStride":16,"target":34962},{"buffer":0,"byteLength":8424,"byteOffset":19656,"byteStride":12,"target":34962},{"buffer":0,"byteLength":5616,"byteOffset":28080,"byteStride":8,"target":34962},{"buffer":0,"byteLength":1404,"byteOffset":33696,"target":34963}],"buffers":[{"byteLength":35100,"uri":"bigDoor0.bin"}],"extensionsUsed":["GODOT_single_root"],"materials":[{"extensions":{},"pbrMetallicRoughness":{"baseColorFactor":[0.99999988079071,0.99999988079071,0.99999988079071,1],"metallicFactor":0,"roughnessFactor":1}}],"meshes":[{"extras":{"targetNames":[]},"primitives":[{"attributes":{"NORMAL":2,"POSITION":0,"TANGENT":1,"TEXCOORD_0":3},"indices":4,"material":0,"mode":4}]}],"nodes":[{"children":[1],"name":"Node3D"},{"children":[2,3],"mesh":0,"name":"CSGCombiner3D2"},{"name":"CSGBox3D","translation":[0,10,0]},{"name":"CSGSphere3D","scale":[0.850000023841858,1.05999994277954,1],"translation":[0,2.68632650375366,0]}],"scene":0,"scenes":[{"nodes":[0]}]}