{"accessors":[{"bufferView":0,"byteOffset":0,"componentType":5126,"count":402,"max":[25,20,0.5],"min":[-25,0,-0.50000047683716],"normalized":false,"type":"VEC3"},{"bufferView":1,"byteOffset":0,"componentType":5126,"count":402,"max":[0.976665914058685,0.151633605360985,0.999996781349182,-1],"min":[-1,-1,-1,-1],"normalized":false,"type":"VEC4"},{"bufferView":2,"byteOffset":0,"componentType":5126,"count":402,"max":[1,1,1],"min":[-1,-1,-1],"normalized":false,"type":"VEC3"},{"bufferView":3,"byteOffset":0,"componentType":5126,"count":402,"max":[1,1],"min":[0,0],"normalized":false,"type":"VEC2"},{"bufferView":4,"byteOffset":0,"componentType":5123,"count":402,"max":[401],"min":[0],"normalized":false,"type":"SCALAR"}],"asset":{"generator":"Godot Engine v4.3.rc1.official@e343dbbcc1030f04dc5833f1c19d267a17332ca9","version":"2.0"},"bufferViews":[{"buffer":0,"byteLength":4824,"byteOffset":0,"byteStride":12,"target":34962},{"buffer":0,"byteLength":6432,"byteOffset":4824,"byteStride":16,"target":34962},{"buffer":0,"byteLength":4824,"byteOffset":11256,"byteStride":12,"target":34962},{"buffer":0,"byteLength":3216,"byteOffset":16080,"byteStride":8,"target":34962},{"buffer":0,"byteLength":804,"byteOffset":19296,"target":34963}],"buffers":[{"byteLength":20100,"uri":"CastleDoor0.bin"}],"extensionsUsed":["GODOT_single_root"],"materials":[{"extensions":{},"pbrMetallicRoughness":{"baseColorFactor":[0.99999988079071,0.99999988079071,0.99999988079071,1],"metallicFactor":0,"roughnessFactor":1}}],"meshes":[{"extras":{"targetNames":[]},"primitives":[{"attributes":{"NORMAL":2,"POSITION":0,"TANGENT":1,"TEXCOORD_0":3},"indices":4,"material":0,"mode":4}]}],"nodes":[{"children":[1],"name":"Node3D"},{"children":[2,3],"mesh":0,"name":"CSGCombiner3D2"},{"name":"CSGBox3D","translation":[0,10,0]},{"name":"CSGSphere3D","scale":[1.03999996185303,1.72500002384186,1],"translation":[14,0,0]}],"scene":0,"scenes":[{"nodes":[0]}]}