{"accessors":[{"bufferView":0,"byteOffset":0,"componentType":5126,"count":504,"max":[14.5,10,0.5],"min":[-14.5,0,-0.5],"normalized":false,"type":"VEC3"},{"bufferView":1,"byteOffset":0,"componentType":5126,"count":504,"max":[1,0.980792701244354,1,1],"min":[-1,-0.98079127073288,-1,-1],"normalized":false,"type":"VEC4"},{"bufferView":2,"byteOffset":0,"componentType":5126,"count":504,"max":[1,1,1],"min":[-1,-1,-1],"normalized":false,"type":"VEC3"},{"bufferView":3,"byteOffset":0,"componentType":5126,"count":504,"max":[1,1],"min":[0,0],"normalized":false,"type":"VEC2"},{"bufferView":4,"byteOffset":0,"componentType":5123,"count":504,"max":[503],"min":[0],"normalized":false,"type":"SCALAR"}],"asset":{"generator":"Godot Engine v4.3.rc1.official@e343dbbcc1030f04dc5833f1c19d267a17332ca9","version":"2.0"},"bufferViews":[{"buffer":0,"byteLength":6048,"byteOffset":0,"byteStride":12,"target":34962},{"buffer":0,"byteLength":8064,"byteOffset":6048,"byteStride":16,"target":34962},{"buffer":0,"byteLength":6048,"byteOffset":14112,"byteStride":12,"target":34962},{"buffer":0,"byteLength":4032,"byteOffset":20160,"byteStride":8,"target":34962},{"buffer":0,"byteLength":1008,"byteOffset":24192,"target":34963}],"buffers":[{"byteLength":25200,"uri":"EntranceDoor0.bin"}],"extensionsUsed":["GODOT_single_root"],"materials":[{"extensions":{},"pbrMetallicRoughness":{"baseColorFactor":[0.99999988079071,0.99999988079071,0.99999988079071,1],"metallicFactor":0,"roughnessFactor":1}}],"meshes":[{"extras":{"targetNames":[]},"primitives":[{"attributes":{"NORMAL":2,"POSITION":0,"TANGENT":1,"TEXCOORD_0":3},"indices":4,"material":0,"mode":4}]}],"nodes":[{"children":[1,2,3],"mesh":0,"name":"WallWithDoor2"},{"name":"CSGMesh3D","translation":[0,5,0]},{"name":"CSGMesh3D2","translation":[10,1,0]},{"name":"CSGCylinder3D","rotation":[0.5,0.5,0.5,0.5],"translation":[10,4,0]}],"scene":0,"scenes":[{"nodes":[0]}]}