{"accessors":[{"bufferView":0,"byteOffset":0,"componentType":5126,"count":588,"max":[0.5,10,9],"min":[-0.5,0,-7],"normalized":false,"type":"VEC3"},{"bufferView":1,"byteOffset":0,"componentType":5126,"count":588,"max":[1,0.980793356895447,1,1],"min":[-1,-0.98080563545227,-1,-1],"normalized":false,"type":"VEC4"},{"bufferView":2,"byteOffset":0,"componentType":5126,"count":588,"max":[1,1,1],"min":[-1,-1,-1],"normalized":false,"type":"VEC3"},{"bufferView":3,"byteOffset":0,"componentType":5126,"count":588,"max":[1,1],"min":[0,0],"normalized":false,"type":"VEC2"},{"bufferView":4,"byteOffset":0,"componentType":5123,"count":588,"max":[587],"min":[0],"normalized":false,"type":"SCALAR"}],"asset":{"generator":"Godot Engine v4.3.rc1.official@e343dbbcc1030f04dc5833f1c19d267a17332ca9","version":"2.0"},"bufferViews":[{"buffer":0,"byteLength":7056,"byteOffset":0,"byteStride":12,"target":34962},{"buffer":0,"byteLength":9408,"byteOffset":7056,"byteStride":16,"target":34962},{"buffer":0,"byteLength":7056,"byteOffset":16464,"byteStride":12,"target":34962},{"buffer":0,"byteLength":4704,"byteOffset":23520,"byteStride":8,"target":34962},{"buffer":0,"byteLength":1176,"byteOffset":28224,"target":34963}],"buffers":[{"byteLength":29400,"uri":"GalleryDoor0.bin"}],"extensionsUsed":["GODOT_single_root"],"materials":[{"extensions":{},"pbrMetallicRoughness":{"baseColorFactor":[0.99999988079071,0.99999988079071,0.99999988079071,1],"metallicFactor":0,"roughnessFactor":1}}],"meshes":[{"extras":{"targetNames":[]},"primitives":[{"attributes":{"NORMAL":2,"POSITION":0,"TANGENT":1,"TEXCOORD_0":3},"indices":4,"material":0,"mode":4}]}],"nodes":[{"children":[1,2,3,4],"mesh":0,"name":"CSGCombiner3D2"},{"name":"CSGMesh3D","translation":[0,5,1]},{"name":"CSGMesh3D3","translation":[0,2.40000009536743,4]},{"name":"CSGMesh3D4","rotation":[0,0.70710676908493,0,0.70710676908493],"translation":[0,1,-3]},{"name":"CSGCylinder3D","rotation":[0.70710676908493,0.70710676908493,-0.00000001053671,-0.00000001053671],"translation":[0,4,-3]}],"scene":0,"scenes":[{"nodes":[0]}]}