{"accessors":[{"bufferView":0,"byteOffset":0,"componentType":5126,"count":801,"max":[21,5,0.5],"min":[-21,-5,-0.5],"normalized":false,"type":"VEC3"},{"bufferView":1,"byteOffset":0,"componentType":5126,"count":801,"max":[1,0.000229,1,1],"min":[-1,-0.000122,-1,-1],"normalized":false,"type":"VEC4"},{"bufferView":2,"byteOffset":0,"componentType":5126,"count":801,"max":[1,1,1],"min":[-1,-1,-1],"normalized":false,"type":"VEC3"},{"bufferView":3,"byteOffset":0,"componentType":5126,"count":801,"max":[1,1],"min":[0,0],"normalized":false,"type":"VEC2"},{"bufferView":4,"byteOffset":0,"componentType":5125,"count":801,"max":[800],"min":[0],"normalized":false,"type":"SCALAR"}],"asset":{"generator":"Godot Engine v4.2.2.stable.official@15073afe3856abd2aa1622492fe50026c7d63dc1","version":"2.0"},"bufferViews":[{"buffer":0,"byteLength":9612,"byteOffset":0},{"buffer":0,"byteLength":12816,"byteOffset":9612},{"buffer":0,"byteLength":9612,"byteOffset":22428},{"buffer":0,"byteLength":6408,"byteOffset":32040},{"buffer":0,"byteLength":3204,"byteOffset":38448}],"buffers":[{"byteLength":41652,"uri":"GalleryWindow0.bin"}],"extensionsUsed":["GODOT_single_root"],"materials":[{"extensions":{},"pbrMetallicRoughness":{"baseColorFactor":[0.99999988079071,0.99999988079071,0.99999988079071,1],"metallicFactor":0,"roughnessFactor":1}}],"meshes":[{"extras":{"targetNames":[]},"primitives":[{"attributes":{"NORMAL":2,"POSITION":0,"TANGENT":1,"TEXCOORD_0":3},"indices":4,"material":0,"mode":4}]}],"nodes":[{"children":[1,2,3,4,5],"extensions":{},"mesh":0,"name":"CSGCombiner3D2","translation":[9,5,-62]},{"extensions":{},"name":"CSGMesh3D"},{"extensions":{},"name":"CSGMesh3D2","translation":[16,0,0]},{"extensions":{},"name":"CSGMesh3D3","translation":[7,0,0]},{"extensions":{},"name":"CSGMesh3D4","translation":[-2,0,0]},{"extensions":{},"name":"CSGMesh3D5","translation":[-11,0,0]}],"scene":0,"scenes":[{"nodes":[0]}]}