{"accessors":[{"bufferView":0,"byteOffset":0,"componentType":5126,"count":264,"max":[0.5,5,5.5],"min":[-0.5,-5,-5.5],"normalized":false,"type":"VEC3"},{"bufferView":1,"byteOffset":0,"componentType":5126,"count":264,"max":[1,0.000031,1,1],"min":[-1,-0.000031,-1,-1],"normalized":false,"type":"VEC4"},{"bufferView":2,"byteOffset":0,"componentType":5126,"count":264,"max":[1,1,1],"min":[-1,-1,-1],"normalized":false,"type":"VEC3"},{"bufferView":3,"byteOffset":0,"componentType":5126,"count":264,"max":[1,1],"min":[0,0],"normalized":false,"type":"VEC2"},{"bufferView":4,"byteOffset":0,"componentType":5125,"count":264,"max":[263],"min":[0],"normalized":false,"type":"SCALAR"}],"asset":{"generator":"Godot Engine v4.2.2.stable.official@15073afe3856abd2aa1622492fe50026c7d63dc1","version":"2.0"},"bufferViews":[{"buffer":0,"byteLength":3168,"byteOffset":0},{"buffer":0,"byteLength":4224,"byteOffset":3168},{"buffer":0,"byteLength":3168,"byteOffset":7392},{"buffer":0,"byteLength":2112,"byteOffset":10560},{"buffer":0,"byteLength":1056,"byteOffset":12672}],"buffers":[{"byteLength":13728,"uri":"LibraaryWindow0.bin"}],"extensionsUsed":["GODOT_single_root"],"materials":[{"extensions":{},"pbrMetallicRoughness":{"baseColorFactor":[0.99999988079071,0.99999988079071,0.99999988079071,1],"metallicFactor":0,"roughnessFactor":1}}],"meshes":[{"extras":{"targetNames":[]},"primitives":[{"attributes":{"NORMAL":2,"POSITION":0,"TANGENT":1,"TEXCOORD_0":3},"indices":4,"material":0,"mode":4}]}],"nodes":[{"children":[1,2],"extensions":{},"mesh":0,"name":"CSGCombiner3D2","translation":[0,0,-4]},{"extensions":{},"name":"CSGMesh3D"},{"extensions":{},"name":"CSGMesh3D2","translation":[0,-2,1]}],"scene":0,"scenes":[{"nodes":[0]}]}