{"accessors":[{"bufferView":0,"byteOffset":0,"componentType":5126,"count":1125,"max":[25,10,-6.407],"min":[-25.00765,0,-56.406998],"normalized":false,"type":"VEC3"},{"bufferView":1,"byteOffset":0,"componentType":5126,"count":1125,"max":[1,0.453072,1,1],"min":[-1,-1,-1,-1],"normalized":false,"type":"VEC4"},{"bufferView":2,"byteOffset":0,"componentType":5126,"count":1125,"max":[1,1,1],"min":[-1,-1,-1],"normalized":false,"type":"VEC3"},{"bufferView":3,"byteOffset":0,"componentType":5126,"count":1125,"max":[1.000032,1],"min":[0,0],"normalized":false,"type":"VEC2"},{"bufferView":4,"byteOffset":0,"componentType":5125,"count":1125,"max":[1124],"min":[0],"normalized":false,"type":"SCALAR"}],"asset":{"generator":"Godot Engine v4.2.2.stable.official@15073afe3856abd2aa1622492fe50026c7d63dc1","version":"2.0"},"bufferViews":[{"buffer":0,"byteLength":13500,"byteOffset":0},{"buffer":0,"byteLength":18000,"byteOffset":13500},{"buffer":0,"byteLength":13500,"byteOffset":31500},{"buffer":0,"byteLength":9000,"byteOffset":45000},{"buffer":0,"byteLength":4500,"byteOffset":54000}],"buffers":[{"byteLength":58500,"uri":"prototype_castle0.bin"}],"extensionsUsed":["GODOT_single_root"],"materials":[{"extensions":{},"pbrMetallicRoughness":{"baseColorFactor":[0.99999988079071,0.99999988079071,0.99999988079071,1],"metallicFactor":0,"roughnessFactor":1}}],"meshes":[{"extras":{"targetNames":[]},"primitives":[{"attributes":{"NORMAL":2,"POSITION":0,"TANGENT":1,"TEXCOORD_0":3},"indices":4,"material":0,"mode":4}]}],"nodes":[{"children":[1,2,3,4],"extensions":{},"mesh":0,"name":"CSGCombiner3D2","translation":[0,0,-4.52194023132324]},{"extensions":{},"name":"CSGBox3D","translation":[0,5,-31.4069995880127]},{"extensions":{},"name":"CSGBox3D2","translation":[0,4.75,-31.4069995880127]},{"extensions":{},"name":"CSGBox3D3","translation":[0,2.5,-6.53380012512207]},{"children":[5,6,7],"extensions":{},"name":"Room1","translation":[-10.6003999710083,4.75,-15.0193996429443]},{"extensions":{},"name":"CSGBox3D4","translation":[0.0629538968205452,0,0.101360000669956]},{"extensions":{},"name":"CSGBox3D22","translation":[-10.1911001205444,-2.26149988174438,-7.88697004318237]},{"extensions":{},"name":"CSGBox3D32","translation":[10.59850025177,-2.26149988174438,8.03405952453613]}],"scene":0,"scenes":[{"nodes":[0]}]}