{"accessors":[{"bufferView":0,"byteOffset":0,"componentType":5126,"count":29256,"max":[27.5,2,26.0000019073486],"min":[-27.5000038146973,0,-26.0000038146973],"normalized":false,"type":"VEC3"},{"bufferView":1,"byteOffset":0,"componentType":5126,"count":29256,"max":[1,0.729068875312805,0.995654821395874,1],"min":[-1,-1,-1,-1],"normalized":false,"type":"VEC4"},{"bufferView":2,"byteOffset":0,"componentType":5126,"count":29256,"max":[1,1,1],"min":[-1,-1,-1],"normalized":false,"type":"VEC3"},{"bufferView":3,"byteOffset":0,"componentType":5126,"count":29256,"max":[1,1],"min":[0,0],"normalized":false,"type":"VEC2"},{"bufferView":4,"byteOffset":0,"componentType":5123,"count":29256,"max":[29255],"min":[0],"normalized":false,"type":"SCALAR"}],"asset":{"generator":"Godot Engine v4.3.rc1.official@e343dbbcc1030f04dc5833f1c19d267a17332ca9","version":"2.0"},"bufferViews":[{"buffer":0,"byteLength":351072,"byteOffset":0,"byteStride":12,"target":34962},{"buffer":0,"byteLength":468096,"byteOffset":351072,"byteStride":16,"target":34962},{"buffer":0,"byteLength":351072,"byteOffset":819168,"byteStride":12,"target":34962},{"buffer":0,"byteLength":234048,"byteOffset":1170240,"byteStride":8,"target":34962},{"buffer":0,"byteLength":58512,"byteOffset":1404288,"target":34963}],"buffers":[{"byteLength":1462800,"uri":"Roof0.bin"}],"extensionsUsed":["GODOT_single_root"],"materials":[{"extensions":{},"pbrMetallicRoughness":{"baseColorFactor":[0.99999988079071,0.99999988079071,0.99999988079071,1],"metallicFactor":0,"roughnessFactor":1}}],"meshes":[{"extras":{"targetNames":[]},"primitives":[{"attributes":{"NORMAL":2,"POSITION":0,"TANGENT":1,"TEXCOORD_0":3},"indices":4,"material":0,"mode":4}]}],"nodes":[{"children":[1,2,3,4,5,6,7,8,9,10,11,12,13,14,15,16,17,18,19,20,21,22,23,24,25,26,27,28,29,30,31,32,33,34,35,36,37,38,39,40,41,42,43,44,45,46,47,48,49,50,51,52,53,54,55,56,57,58,59,60,61,62,63,64,65,66,67,68],"mesh":0,"name":"CSGRoof2"},{"name":"CSGBox3D","translation":[0,1,0]},{"name":"CSGBox3D2","translation":[0,1.5,0]},{"name":"CSGBox3D3","translation":[-24,2,26]},{"name":"CSGBox3D37","rotation":[0,-0.70710676908493,0,0.70710676908493],"translation":[-27,2,22.468900680542]},{"name":"CSGBox3D38","rotation":[0,-0.70710676908493,0,0.70710676908493],"translation":[-27,2,19.468900680542]},{"name":"CSGBox3D39","rotation":[0,-0.70710676908493,0,0.70710676908493],"translation":[-27,2,16.468900680542]},{"name":"CSGBox3D40","rotation":[0,-0.70710676908493,0,0.70710676908493],"translation":[-27,2,13.4688997268677]},{"name":"CSGBox3D41","rotation":[0,-0.70710676908493,0,0.70710676908493],"translation":[-27,2,10.4688997268677]},{"name":"CSGBox3D42","rotation":[0,-0.70710676908493,0,0.70710676908493],"translation":[-27,2,7.46893978118896]},{"name":"CSGBox3D43","rotation":[0,-0.70710676908493,0,0.70710676908493],"translation":[-27,2,4.46893978118896]},{"name":"CSGBox3D44","rotation":[0,-0.70710676908493,0,0.70710676908493],"translation":[-27,2,1.46894001960754]},{"name":"CSGBox3D45","rotation":[0,-0.70710676908493,0,0.70710676908493],"translation":[-27,2,-1.53105998039246]},{"name":"CSGBox3D46","rotation":[0,-0.70710676908493,0,0.70710676908493],"translation":[-27,2,-4.53106021881104]},{"name":"CSGBox3D47","rotation":[0,-0.70710676908493,0,0.70710676908493],"translation":[-27,2,-7.53106021881104]},{"name":"CSGBox3D48","rotation":[0,-0.70710676908493,0,0.70710676908493],"translation":[-27,2,-10.5311002731323]},{"name":"CSGBox3D49","rotation":[0,-0.70710676908493,0,0.70710676908493],"translation":[-27,2,-13.5311002731323]},{"name":"CSGBox3D50","rotation":[0,-0.70710676908493,0,0.70710676908493],"translation":[-27,2,-16.531099319458]},{"name":"CSGBox3D51","rotation":[0,-0.70710676908493,0,0.70710676908493],"translation":[-27,2,-19.531099319458]},{"name":"CSGBox3D52","rotation":[0,-0.70710676908493,0,0.70710676908493],"translation":[-27,2,-22.531099319458]},{"name":"CSGBox3D53","rotation":[0,-0.70710676908493,0,0.70710676908493],"translation":[27,2,22.468900680542]},{"name":"CSGBox3D54","rotation":[0,-0.70710676908493,0,0.70710676908493],"translation":[27,2,19.468900680542]},{"name":"CSGBox3D55","rotation":[0,-0.70710676908493,0,0.70710676908493],"translation":[27,2,16.468900680542]},{"name":"CSGBox3D56","rotation":[0,-0.70710676908493,0,0.70710676908493],"translation":[27,2,13.4688997268677]},{"name":"CSGBox3D57","rotation":[0,-0.70710676908493,0,0.70710676908493],"translation":[27,2,10.4688997268677]},{"name":"CSGBox3D58","rotation":[0,-0.70710676908493,0,0.70710676908493],"translation":[27,2,7.46893978118896]},{"name":"CSGBox3D59","rotation":[0,-0.70710676908493,0,0.70710676908493],"translation":[27,2,4.46893978118896]},{"name":"CSGBox3D60","rotation":[0,-0.70710676908493,0,0.70710676908493],"translation":[27,2,1.46894001960754]},{"name":"CSGBox3D61","rotation":[0,-0.70710676908493,0,0.70710676908493],"translation":[27,2,-1.53105998039246]},{"name":"CSGBox3D62","rotation":[0,-0.70710676908493,0,0.70710676908493],"translation":[27,2,-4.53106021881104]},{"name":"CSGBox3D63","rotation":[0,-0.70710676908493,0,0.70710676908493],"translation":[27,2,-7.53106021881104]},{"name":"CSGBox3D64","rotation":[0,-0.70710676908493,0,0.70710676908493],"translation":[27,2,-10.5311002731323]},{"name":"CSGBox3D65","rotation":[0,-0.70710676908493,0,0.70710676908493],"translation":[27,2,-13.5311002731323]},{"name":"CSGBox3D66","rotation":[0,-0.70710676908493,0,0.70710676908493],"translation":[27,2,-16.531099319458]},{"name":"CSGBox3D67","rotation":[0,-0.70710676908493,0,0.70710676908493],"translation":[27,2,-19.531099319458]},{"name":"CSGBox3D68","rotation":[0,-0.70710676908493,0,0.70710676908493],"translation":[27,2,-22.531099319458]},{"name":"CSGBox3D4","translation":[-21,2,26]},{"name":"CSGBox3D5","translation":[-18,2,26]},{"name":"CSGBox3D6","translation":[-15,2,26]},{"name":"CSGBox3D7","translation":[-12,2,26]},{"name":"CSGBox3D8","translation":[-9,2,26]},{"name":"CSGBox3D9","translation":[-6,2,26]},{"name":"CSGBox3D10","translation":[-3,2,26]},{"name":"CSGBox3D11","translation":[0,2,26]},{"name":"CSGBox3D12","translation":[3,2,26]},{"name":"CSGBox3D13","translation":[6,2,26]},{"name":"CSGBox3D14","translation":[9,2,26]},{"name":"CSGBox3D15","translation":[12,2,26]},{"name":"CSGBox3D16","translation":[15,2,26]},{"name":"CSGBox3D17","translation":[18,2,26]},{"name":"CSGBox3D18","translation":[21,2,26]},{"name":"CSGBox3D19","translation":[24,2,26]},{"name":"CSGBox3D20","translation":[-24,2,-25]},{"name":"CSGBox3D21","translation":[-21,2,-25]},{"name":"CSGBox3D22","translation":[-18,2,-25]},{"name":"CSGBox3D23","translation":[-15,2,-25]},{"name":"CSGBox3D24","translation":[-12,2,-25]},{"name":"CSGBox3D25","translation":[-9,2,-25]},{"name":"CSGBox3D26","translation":[-6,2,-25]},{"name":"CSGBox3D27","translation":[-3,2,-25]},{"name":"CSGBox3D28","translation":[0,2,-25]},{"name":"CSGBox3D29","translation":[3,2,-25]},{"name":"CSGBox3D30","translation":[6,2,-25]},{"name":"CSGBox3D31","translation":[9,2,-25]},{"name":"CSGBox3D32","translation":[12,2,-25]},{"name":"CSGBox3D33","translation":[15,2,-25]},{"name":"CSGBox3D34","translation":[18,2,-25]},{"name":"CSGBox3D35","translation":[21,2,-25]},{"name":"CSGBox3D36","translation":[24,2,-25]}],"scene":0,"scenes":[{"nodes":[0]}]}